2014001_C3_03_grf
version=1
nRows=30
nColumns=19
inDegrees=no
endheader
time	ground_force_1_vx	ground_force_1_vy	ground_force_1_vz	ground_force_1_px	ground_force_1_py	ground_force_1_pz	ground_force_1_mx	ground_force_1_my	ground_force_1_mz	ground_force_2_vx	ground_force_2_vy	ground_force_2_vz	ground_force_2_px	ground_force_2_py	ground_force_2_pz	ground_force_2_mx	ground_force_2_my	ground_force_2_mz
      0.91500000	      0.00000000	      0.00000000	      0.00000000	      0.00000000	      0.00000000	      0.00000000	      0.00000000	      0.00000000	      0.00000000	    -38.70707229	    594.82601285	    -37.41380945	      0.35932671	     -0.00200000	      0.80770557	      0.00000000	      2.45415211	      0.00000000
      0.91600000	      0.00000000	      0.00000000	      0.00000000	      0.00000000	      0.00000000	      0.00000000	      0.00000000	      0.00000000	      0.00000000	    -38.50327134	    593.48744154	    -37.11617365	      0.35946349	     -0.00200000	      0.80809233	     -0.00000000	      2.44260075	      0.00000000
      0.91700000	      0.00000000	      0.00000000	      0.00000000	      0.00000000	      0.00000000	      0.00000000	      0.00000000	      0.00000000	      0.00000000	    -38.31089437	    592.16058254	    -36.82061099	      0.35960185	     -0.00200000	      0.80847953	     -0.00000000	      2.43126205	      0.00000000
      0.91800000	      0.00000000	      0.00000000	      0.00000000	      0.00000000	      0.00000000	      0.00000000	      0.00000000	      0.00000000	      0.00000000	    -38.12776208	    590.84320068	    -36.52660176	      0.35974151	     -0.00200000	      0.80886703	     -0.00000000	      2.42010450	      0.00000000
      0.91900000	      0.00000000	      0.00000000	      0.00000000	      0.00000000	      0.00000000	      0.00000000	      0.00000000	      0.00000000	      0.00000000	    -37.95627952	    589.53812718	    -36.23441420	      0.35988269	     -0.00200000	      0.80925477	     -0.00000000	      2.40918761	      0.00000000
      0.92000000	      0.00000000	      0.00000000	      0.00000000	      0.00000000	      0.00000000	      0.00000000	      0.00000000	      0.00000000	      0.00000000	    -37.79415786	    588.24306726	    -35.94360128	      0.36002509	     -0.00200000	      0.80964263	     -0.00000000	      2.39847023	      0.00000000
      0.92100000	      0.00000000	      0.00000000	      0.00000000	      0.00000000	      0.00000000	      0.00000000	      0.00000000	      0.00000000	      0.00000000	    -37.64374629	    586.96082234	    -35.65438651	      0.36016899	     -0.00200000	      0.81003056	      0.00000000	      2.38801318	      0.00000000
      0.92200000	      0.00000000	      0.00000000	      0.00000000	      0.00000000	      0.00000000	      0.00000000	      0.00000000	      0.00000000	      0.00000000	    -37.50267327	    585.68906784	    -35.36636382	      0.36031405	     -0.00200000	      0.81041849	      0.00000000	      2.37777129	      0.00000000
      0.92300000	      0.00000000	      0.00000000	      0.00000000	      0.00000000	      0.00000000	      0.00000000	      0.00000000	      0.00000000	      0.00000000	    -37.37320192	    584.43078399	    -35.07971205	      0.36046051	     -0.00200000	      0.81080635	      0.00000000	      2.36780363	      0.00000000
      0.92400000	      0.00000000	      0.00000000	      0.00000000	      0.00000000	      0.00000000	      0.00000000	      0.00000000	      0.00000000	      0.00000000	    -37.25291267	    583.18346739	    -34.79407355	      0.36060808	     -0.00200000	      0.81119412	      0.00000000	      2.35805611	      0.00000000
      0.92500000	      0.00000000	      0.00000000	      0.00000000	      0.00000000	      0.00000000	      0.00000000	      0.00000000	      0.00000000	      0.00000000	    -37.14393228	    581.95021749	    -34.50961038	      0.36075699	     -0.00200000	      0.81158171	      0.00000000	      2.34858208	      0.00000000
      0.92600000	      0.00000000	      0.00000000	      0.00000000	      0.00000000	      0.00000000	      0.00000000	      0.00000000	      0.00000000	      0.00000000	    -37.04383895	    580.72853088	    -34.22600776	      0.36090692	     -0.00200000	      0.81196912	      0.00000000	      2.33932501	      0.00000000
      0.92700000	      0.00000000	      0.00000000	      0.00000000	      0.00000000	      0.00000000	      0.00000000	      0.00000000	      0.00000000	      0.00000000	    -36.95462309	    579.52168584	    -33.94340537	      0.36105812	     -0.00200000	      0.81235625	      0.00000000	      2.33033055	      0.00000000
      0.92800000	      0.00000000	      0.00000000	      0.00000000	      0.00000000	      0.00000000	      0.00000000	      0.00000000	      0.00000000	      0.00000000	    -36.87389866	    578.32700014	    -33.66154432	      0.36121029	     -0.00200000	      0.81274311	      0.00000000	      2.32153888	     -0.00000000
      0.92900000	      0.00000000	      0.00000000	      0.00000000	      0.00000000	      0.00000000	      0.00000000	      0.00000000	      0.00000000	      0.00000000	    -36.80350073	    577.14799047	    -33.38053823	      0.36136363	     -0.00200000	      0.81312956	      0.00000000	      2.31299066	     -0.00000000
      0.93000000	      0.00000000	      0.00000000	      0.00000000	      0.00000000	      0.00000000	      0.00000000	      0.00000000	      0.00000000	      0.00000000	    -36.74111813	    575.98191500	    -33.10016915	      0.36151782	     -0.00200000	      0.81351563	      0.00000000	      2.30462881	      0.00000000
      0.93100000	      0.00000000	      0.00000000	      0.00000000	      0.00000000	      0.00000000	      0.00000000	      0.00000000	      0.00000000	      0.00000000	    -36.68842278	    574.83232021	    -32.82053024	      0.36167303	     -0.00200000	      0.81390117	      0.00000000	      2.29648940	      0.00000000
      0.93200000	      0.00000000	      0.00000000	      0.00000000	      0.00000000	      0.00000000	      0.00000000	      0.00000000	      0.00000000	      0.00000000	    -36.64319515	    573.69637489	    -32.54142776	      0.36182895	     -0.00200000	      0.81428622	      0.00000000	      2.28851975	     -0.00000000
      0.93300000	      0.00000000	      0.00000000	      0.00000000	      0.00000000	      0.00000000	      0.00000000	      0.00000000	      0.00000000	      0.00000000	    -36.60692386	    572.57783413	    -32.26294555	      0.36198571	     -0.00200000	      0.81467062	      0.00000000	      2.28074776	      0.00000000
      0.93400000	      0.00000000	      0.00000000	      0.00000000	      0.00000000	      0.00000000	      0.00000000	      0.00000000	      0.00000000	      0.00000000	    -36.57750338	    571.47359848	    -31.98491782	      0.36214304	     -0.00200000	      0.81505443	      0.00000000	      2.27312294	      0.00000000
      0.93500000	      0.00000000	      0.00000000	      0.00000000	      0.00000000	      0.00000000	      0.00000000	      0.00000000	      0.00000000	      0.00000000	    -36.55623794	    570.38760185	    -31.70741536	      0.36230101	     -0.00200000	      0.81543747	      0.00000000	      2.26566423	      0.00000000
      0.93600000	      0.00000000	      0.00000000	      0.00000000	      0.00000000	      0.00000000	      0.00000000	      0.00000000	      0.00000000	      0.00000000	    -36.54116616	    569.31656599	    -31.43030778	      0.36245935	     -0.00200000	      0.81581984	      0.00000000	      2.25832316	      0.00000000
      0.93700000	      0.00000000	      0.00000000	      0.00000000	      0.00000000	      0.00000000	      0.00000000	      0.00000000	      0.00000000	      0.00000000	    -36.53340340	    568.26460361	    -31.15365840	      0.36261805	     -0.00200000	      0.81620132	      0.00000000	      2.25110814	      0.00000000
      0.93800000	      0.00000000	      0.00000000	      0.00000000	      0.00000000	      0.00000000	      0.00000000	      0.00000000	      0.00000000	      0.00000000	    -36.53113469	    567.22819805	    -30.87735362	      0.36277691	     -0.00200000	      0.81658205	      0.00000000	      2.24397663	      0.00000000
      0.93900000	      0.00000000	      0.00000000	      0.00000000	      0.00000000	      0.00000000	      0.00000000	      0.00000000	      0.00000000	      0.00000000	    -36.53528988	    566.21164083	    -30.60145117	      0.36293581	     -0.00200000	      0.81696179	      0.00000000	      2.23692858	     -0.00000000
      0.94000000	      0.00000000	      0.00000000	      0.00000000	      0.00000000	      0.00000000	      0.00000000	      0.00000000	      0.00000000	      0.00000000	    -36.54421940	    565.21117687	    -30.32585233	      0.36309464	     -0.00200000	      0.81734070	      0.00000000	      2.22992860	      0.00000000
      0.94100000	      0.00000000	      0.00000000	      0.00000000	      0.00000000	      0.00000000	      0.00000000	      0.00000000	      0.00000000	      0.00000000	    -36.55866086	    564.23121691	    -30.05061951	      0.36325326	     -0.00200000	      0.81771852	      0.00000000	      2.22296703	      0.00000000
      0.94200000	      0.00000000	      0.00000000	      0.00000000	      0.00000000	      0.00000000	      0.00000000	      0.00000000	      0.00000000	      0.00000000	    -36.57714128	    563.26794624	    -29.77566980	      0.36341157	     -0.00200000	      0.81809543	      0.00000000	      2.21602094	      0.00000000
      0.94300000	      0.00000000	      0.00000000	      0.00000000	      0.00000000	      0.00000000	      0.00000000	      0.00000000	      0.00000000	      0.00000000	    -36.60021611	    562.32574582	    -29.50106561	      0.36356937	     -0.00200000	      0.81847118	      0.00000000	      2.20907379	      0.00000000
      0.94400000	      0.00000000	      0.00000000	      0.00000000	      0.00000000	      0.00000000	      0.00000000	      0.00000000	      0.00000000	      0.00000000	    -36.62661016	    561.40065193	    -29.22672592	      0.36372668	     -0.00200000	      0.81884596	      0.00000000	      2.20210917	      0.00000000
